<?xml version="1.0" encoding="utf-8"?>
<!-- Generator: Adobe Illustrator 22.0.1, SVG Export Plug-In . SVG Version: 6.00 Build 0)  -->
<svg version="1.1" id="header_logo" xmlns="http://www.w3.org/2000/svg" xmlns:xlink="http://www.w3.org/1999/xlink" x="0px"
	 y="0px" viewBox="0 0 617.4 74" style="enable-background:new 0 0 617.4 74;" xml:space="preserve">
<style type="text/css">
	.st0{fill:#E31B23;}
	.st1{fill:#FFFFFF;}
	.st2{fill:#141006;}
	.st3{fill:#D91617;}
</style>
<g>
	<g>
		<path class="st0" d="M363.3,48.9l0.1,0.2c0,0-3.7-0.6-7.8-2.2c-2.6-1.1-7.5-3.1-7.4-6.5c0.1-2,1.7-4,3.4-5.1
			c2.5-1.6,6.6-2.9,12.4-3.8c2.8-0.4,6-1.1,9.7-1.4c0,0-1.7-1.9-1.7-4.7c0-2.9,1.2-10.3,27.9-12.6c22.9-2,29.8-0.1,56-0.7
			c0,0-12.1,9.5-15.9,17.9c-2.8,6.1-8,19.1,9,32.3c0,0-15-6.7-29-12.9c-11.6-5.1-32.7-11.3-48.8-10.3c-2.8,0.2-12.8,0.7-11.4,5.5
			C360.3,46.7,363.3,48.9,363.3,48.9"/>
		<path class="st1" d="M385.9,24.3c0,0-1.8,0.8-4.3,0.9c0.3,0.4,0.5,1,0.5,1.6c-0.1,1.2-1.2,2.1-2.4,1.9c-1.2-0.1-2.1-1.2-2-2.4
			c0-0.2,0.1-0.4,0.1-0.5c-1.3,0.9-1.8,2.7-1.8,4.7c0,0,0.3-0.8,1.5-0.7c1.8,0.2,2.4,1,3.8,0.9C385.3,30.6,385.9,24.3,385.9,24.3"/>
		<path class="st2" d="M379.7,28.7c1.2,0.1,2.3-0.7,2.4-1.9c0.1-0.6-0.1-1.1-0.5-1.6c-0.4,0-0.7,0-1.1,0c-1.1-0.1-2,0.1-2.7,0.6
			c-0.1,0.2-0.1,0.3-0.1,0.5C377.6,27.5,378.5,28.6,379.7,28.7"/>
	</g>
	<g>
		<path class="st2" d="M572.9,33.5h5.2c2.8,0,4.8-0.6,6-1.7c1.2-1.1,1.7-3.1,1.7-5.7c0-2.4-0.5-4.2-1.4-5.4c-1-1.2-2.4-1.8-4.3-1.8
			h-7.2V33.5z M568.1,38.6V14.1h12c3.4,0,6.1,1.1,7.9,3.2c1.8,2.1,2.8,5.1,2.8,8.9c0,2.3-0.4,4.3-1.1,6.1c-0.7,1.8-1.7,3.3-3,4.3
			c-0.8,0.7-1.9,1.2-3.1,1.5c-1.2,0.3-2.7,0.5-4.6,0.5H568.1z"/>
		<path class="st2" d="M600.6,28.4h7.1l-3.5-8.7L600.6,28.4z M611.9,38.6l-2.2-5.2h-11.2l-2.1,5.2h-4.8l10.5-24.5h4.5l10.7,24.5
			H611.9z"/>
		<path class="st2" d="M466.2,38.6c-1.9,0-3.1-0.4-3.8-1.3c-0.7-0.8-1-2.4-1-4.6V20c0-2.2,0.3-3.8,1-4.6c0.7-0.9,1.9-1.3,3.8-1.3
			h12.5c1.8,0,3.1,0.4,3.8,1.3c0.7,0.8,1,2.3,1,4.4v0.8l-4.7,1.1v-2.8h-12.7v14.6h12.7v-4.8h-6.9v-4.6h11.6v8.5c0,2.2-0.3,3.8-1,4.6
			c-0.7,0.9-1.9,1.3-3.8,1.3H466.2z"/>
		<path class="st2" d="M494.5,28.4h7.1l-3.5-8.7L494.5,28.4z M505.8,38.6l-2.2-5.2h-11.2l-2.1,5.2h-4.8l10.5-24.5h4.4l10.7,24.5
			H505.8z"/>
		<path class="st2" d="M519,24.9h9.2c0.3,0,1.2,0,1.5-0.6c0.1-0.2,0.2-0.5,0.2-1.1v-2.9c0-0.8-0.2-1.1-0.3-1.3
			c-0.2-0.2-0.6-0.3-1.3-0.3H519V24.9z M529.9,38.6l-7.3-9H519v9h-4.7V14.1h15.8c1.5,0,2.7,0.4,3.3,1.2c0.7,0.8,1,2,1,3.7v5.6
			c0,1.7-0.3,2.9-1,3.7c-0.7,0.8-1.8,1.2-3.3,1.2h-1.5l0.9,1.1l7.3,7.9H529.9z"/>
		<path class="st2" d="M545.2,38.6c-1.9,0-3.1-0.4-3.8-1.3c-0.7-0.8-1-2.4-1-4.6V14.1h4.8v19.4h11.5V14.1h4.8v18.6
			c0,2.2-0.3,3.8-1,4.6c-0.7,0.9-1.9,1.3-3.8,1.3H545.2z"/>
		<polygon class="st2" points="493.9,49.4 493.9,59.9 490.9,59.9 490.9,49.4 484.9,49.4 484.9,47.1 499.9,47.1 499.9,49.4 		"/>
		<rect x="518.8" y="47.1" class="st2" width="3" height="12.9"/>
		<polygon class="st2" points="543.7,59.9 543.7,47.1 546.8,47.1 546.8,57.5 556.6,57.5 556.6,59.9 		"/>
		<polygon class="st2" points="576.2,59.9 576.2,47.1 589.6,47.1 589.6,49.2 579.3,49.2 579.3,52.1 585.3,52.1 585.3,54.3 
			579.3,54.3 579.3,57.5 589.7,57.5 589.7,59.9 		"/>
	</g>
	<g>
		<path d="M86.5,41.3c0,1,0.2,1.8,0.5,2.5c0.3,0.7,0.8,1.3,1.4,1.7c0.6,0.4,1.3,0.8,2.1,1c0.8,0.2,1.6,0.3,2.5,0.3
			c1,0,1.8-0.1,2.5-0.3c0.7-0.2,1.3-0.5,1.7-0.9c0.4-0.4,0.7-0.8,0.9-1.2c0.2-0.5,0.3-0.9,0.3-1.4c0-1-0.2-1.7-0.7-2.2
			c-0.4-0.5-0.9-0.8-1.5-1c-0.9-0.3-2-0.7-3.2-1c-1.2-0.3-2.7-0.7-4.5-1.2c-1.1-0.3-2-0.7-2.8-1.1c-0.7-0.5-1.3-1-1.7-1.6
			c-0.4-0.6-0.7-1.2-0.9-1.8c-0.2-0.6-0.3-1.3-0.3-2c0-1.3,0.3-2.4,0.8-3.4c0.5-0.9,1.3-1.7,2.1-2.4c0.9-0.6,1.9-1.1,3-1.4
			c1.1-0.3,2.3-0.4,3.4-0.4c1.3,0,2.6,0.2,3.8,0.5c1.2,0.3,2.2,0.9,3.1,1.6c0.9,0.7,1.6,1.6,2.1,2.6c0.5,1,0.8,2.2,0.8,3.5h-4.5
			c-0.1-1.7-0.7-2.8-1.7-3.5c-1-0.7-2.3-1-3.9-1c-0.5,0-1.1,0.1-1.6,0.2c-0.6,0.1-1.1,0.3-1.5,0.5c-0.5,0.3-0.8,0.6-1.1,1
			c-0.3,0.4-0.4,1-0.4,1.6c0,0.9,0.3,1.6,0.8,2.1s1.3,0.9,2.2,1.2c0.1,0,0.5,0.1,1.1,0.3c0.7,0.2,1.4,0.4,2.2,0.6s1.6,0.4,2.4,0.6
			c0.8,0.2,1.3,0.4,1.7,0.5c0.8,0.3,1.6,0.6,2.2,1.1c0.6,0.5,1.1,1,1.6,1.6c0.4,0.6,0.7,1.2,0.9,1.9c0.2,0.7,0.3,1.3,0.3,2
			c0,1.4-0.3,2.7-0.9,3.7c-0.6,1-1.4,1.9-2.3,2.5c-1,0.6-2.1,1.1-3.3,1.4c-1.2,0.3-2.5,0.5-3.7,0.5c-1.5,0-2.8-0.2-4.1-0.5
			s-2.4-0.9-3.4-1.7c-1-0.7-1.7-1.7-2.3-2.9c-0.6-1.2-0.9-2.5-0.9-4.1H86.5z"/>
		<path d="M104,24.1h18.5V28h-14v6.7h13v3.7h-13V46h14.3v3.9H104V24.1z"/>
		<path d="M123.7,24.1h6.3l7.1,20.1h0.1l6.9-20.1h6.3v25.7h-4.3V30h-0.1l-7.1,19.8h-3.7L128.1,30H128v19.8h-4.3V24.1z"/>
		<path d="M152.9,24.1h18.5V28h-14v6.7h13v3.7h-13V46h14.3v3.9h-18.8V24.1z"/>
		<path d="M172.6,24.1h4.8L189,43.1h0.1V24.1h4.3v25.7h-4.8L177,30.9h-0.1v18.9h-4.3V24.1z"/>
		<path d="M225.4,49.8h-2.9l-0.7-3c-1.2,1.4-2.4,2.3-3.6,2.8c-1.2,0.5-2.6,0.8-4.1,0.8c-1.9,0-3.6-0.4-5.2-1.1
			c-1.5-0.7-2.8-1.7-3.9-2.9c-1.1-1.2-1.9-2.7-2.4-4.3c-0.6-1.6-0.8-3.4-0.8-5.2c0-1.8,0.3-3.6,0.8-5.2c0.6-1.6,1.4-3.1,2.4-4.3
			c1.1-1.2,2.3-2.2,3.9-2.9c1.5-0.7,3.2-1.1,5.2-1.1c1.4,0,2.7,0.2,4,0.6c1.3,0.4,2.4,0.9,3.4,1.7c1,0.7,1.8,1.7,2.4,2.8
			c0.6,1.1,1.1,2.4,1.2,3.8h-4.4c-0.1-0.8-0.4-1.6-0.8-2.2c-0.4-0.6-0.9-1.2-1.5-1.6c-0.6-0.4-1.3-0.8-2-1c-0.7-0.2-1.5-0.3-2.3-0.3
			c-1.4,0-2.6,0.3-3.5,0.8c-1,0.6-1.8,1.3-2.4,2.2c-0.6,0.9-1.1,2-1.4,3.1c-0.3,1.2-0.5,2.4-0.5,3.6c0,1.2,0.1,2.4,0.5,3.6
			c0.3,1.2,0.8,2.2,1.4,3.2s1.4,1.7,2.4,2.2c1,0.6,2.2,0.8,3.5,0.8c1.2,0,2.2-0.1,3.1-0.5c0.9-0.3,1.6-0.8,2.3-1.4
			c0.6-0.6,1.1-1.4,1.4-2.3c0.3-0.9,0.5-1.9,0.5-3h-6.8v-3.4h10.9V49.8z"/>
		<path d="M233.6,24.1h4.8l9.9,25.7h-4.8L241,43h-10.3l-2.4,6.8h-4.6L233.6,24.1z M232,39.6h7.8L236,28.6h-0.1L232,39.6z"/>
		<path d="M247.1,24.1h12.3c2.8,0,4.9,0.6,6.4,1.8c1.4,1.2,2.1,2.9,2.1,5.1c0,1.2-0.2,2.2-0.5,3c-0.4,0.8-0.8,1.5-1.2,1.9
			c-0.5,0.5-0.9,0.8-1.4,1.1c-0.5,0.2-0.8,0.4-1,0.4v0.1c0.4,0,0.8,0.2,1.2,0.4c0.4,0.2,0.9,0.5,1.2,0.9c0.4,0.4,0.7,1,1,1.6
			c0.3,0.7,0.4,1.5,0.4,2.5c0,1.5,0.1,2.9,0.3,4.1c0.2,1.2,0.6,2.1,1.1,2.6H264c-0.3-0.6-0.5-1.2-0.6-1.8c-0.1-0.7-0.1-1.3-0.1-1.9
			c0-1.2-0.1-2.2-0.2-3c-0.1-0.9-0.4-1.6-0.8-2.1c-0.4-0.6-0.9-1-1.6-1.2c-0.7-0.3-1.5-0.4-2.5-0.4h-6.6v10.6h-4.5V24.1z
			 M251.6,35.8h7.4c1.4,0,2.5-0.3,3.3-1c0.7-0.7,1.1-1.7,1.1-3.1c0-0.8-0.1-1.5-0.4-2c-0.2-0.5-0.6-0.9-1-1.2
			c-0.4-0.3-0.9-0.5-1.4-0.6c-0.5-0.1-1.1-0.1-1.7-0.1h-7.3V35.8z"/>
		<path d="M268.6,24.1h4.5v15c0,0.9,0,1.7,0.1,2.6c0.1,0.9,0.3,1.7,0.7,2.4c0.4,0.7,1,1.3,1.8,1.7c0.8,0.5,1.9,0.7,3.4,0.7
			c1.5,0,2.6-0.2,3.4-0.7c0.8-0.5,1.4-1,1.8-1.7c0.4-0.7,0.6-1.5,0.7-2.4c0.1-0.9,0.1-1.8,0.1-2.6v-15h4.5v16.5
			c0,1.7-0.3,3.1-0.8,4.3s-1.2,2.3-2.1,3.1c-0.9,0.8-2,1.4-3.3,1.9c-1.3,0.4-2.7,0.6-4.3,0.6s-3-0.2-4.3-0.6c-1.3-0.4-2.4-1-3.3-1.9
			c-0.9-0.8-1.6-1.9-2.1-3.1s-0.8-2.7-0.8-4.3V24.1z"/>
		<path d="M291.2,24.1h10.7c2,0,3.7,0.3,5.1,1c1.4,0.7,2.6,1.6,3.5,2.8c0.9,1.2,1.6,2.5,2,4.1c0.4,1.6,0.7,3.2,0.7,5s-0.2,3.4-0.7,5
			c-0.4,1.6-1.1,2.9-2,4.1c-0.9,1.2-2.1,2.1-3.5,2.8c-1.4,0.7-3.1,1-5.1,1h-10.7V24.1z M295.7,46.2h4.4c1.8,0,3.2-0.2,4.3-0.7
			c1.1-0.5,2-1.1,2.6-1.9c0.6-0.8,1.1-1.8,1.3-2.9c0.2-1.1,0.3-2.3,0.3-3.6c0-1.3-0.1-2.5-0.3-3.6c-0.2-1.1-0.7-2.1-1.3-2.9
			c-0.6-0.8-1.5-1.5-2.6-1.9c-1.1-0.5-2.5-0.7-4.3-0.7h-4.4V46.2z"/>
		<path d="M320.5,24.1h4.8l9.9,25.7h-4.8L328,43h-10.3l-2.4,6.8h-4.6L320.5,24.1z M318.9,39.6h7.8l-3.9-11.1h-0.1L318.9,39.6z"/>
	</g>
	<g>
		<g>
			<g>
				<polygon class="st3" points="44.2,63.6 44.2,66 45.6,65.5 44.2,63.6 				"/>
				<path class="st3" d="M50.9,59.9c-0.2,0-0.4,0.1-0.6,0.2l-1.1,0.7l0.8,1.2l1.2-0.8c0.2-0.1,0.3-0.3,0.4-0.5c0-0.2,0-0.4-0.1-0.6
					C51.3,60.1,51.1,60,50.9,59.9z"/>
				<path class="st3" d="M61.9,50.4c-0.2-0.2-0.4-0.3-0.7-0.5c-0.5-0.3-1-0.4-1.4-0.2c-0.4,0.1-0.7,0.5-1,1l-0.4,0.7l3.1,1.7
					l0.4-0.7c0.1-0.3,0.2-0.5,0.3-0.8c0-0.2,0-0.4,0-0.6C62.1,50.7,62,50.5,61.9,50.4z"/>
				<polygon class="st3" points="61.3,44.5 63.3,45.8 63.6,44.4 61.3,44.5 				"/>
			</g>
			<g>
				<path class="st3" d="M53.1,9.7C48,6.6,42,4.8,35.6,4.8c-8.2,0-15.7,2.9-21.6,7.8c0.4,0.5,0.9,1,1.4,1.5c0.6,0.7,1.3,1.3,2,2
					c1.4,1.4,3,2.5,4.6,3.6c0.3,0.2,0.6,0.4,0.8,0.6c3.6-2.6,8.1-4.1,12.8-4.1c4.1,0,7.9,1.1,11.3,3.1c1.8-3.8,3.7-6.4,5.2-8.2
					C52.3,10.6,52.7,10.2,53.1,9.7z"/>
				<path d="M52.9,17.3c-0.4,1.9-0.7,3.8-0.6,5.8c0,0.7,0.2,1.2,0.7,2c0-1.1-0.3-2.1,0.1-2.7c0.4-0.8,0-1.6,0.6-2.6
					c0,1.7,0,3.1,0,4.5c0.2-0.5,0.7-0.8,0.7-1.3c-0.2-1.4,0.5-2.7,0.8-4c0.3-1.1,0.8-2.3,1.2-3.5c0.4-1.2,1.1-2.2,1.5-3.4
					c0.4-1.2,1.1-2.3,1.8-3.2c1.3-1.8,2.5-3.8,4.5-5.1c0.5-0.3,1.3-0.6,1.6-1.3c-0.4-0.1-0.7-0.1-1,0c-0.6,0.2-1,0.7-1.5,0.9
					C62,4,60.9,5,59.9,5.9c-0.9,0.9-1.7,2-2.4,3.1c-0.2,0.3-0.3,0.7-0.7,0.9c0-0.3-0.1-0.6,0-0.8c0.1-0.3,0.6-0.5,0.1-0.9
					c-1.3,1.7-2.1,3.6-3,5.5C53.4,14.8,53.1,16,52.9,17.3z"/>
				<path d="M10.1,16.4c1.3,1.5,3,2.6,4.4,3.8c2.1,1.8,4.5,2.7,7,3.6c0.2,0.1,0.4,0.1,0.5-0.1c-2.4-1.7-4.8-3.4-6.9-5.5
					c-2.1-2.1-3.9-4.4-5.5-6.9C8.2,8.9,7.2,6.3,5.9,3.4C5.8,5.3,6.1,6.7,6.6,8c0.6,1.3,0.8,2.9,2,3.9c0.3,1.4,1.6,2.3,2,3.6
					c-0.9-0.9-1.8-1.7-2.6-2.7c-0.8-1-1.2-2.3-2.4-3.1c0,0.3-0.1,0.5,0,0.6C6.7,12.5,8.4,14.5,10.1,16.4z"/>
				<path d="M27.1,47.1c0.5-0.7,1.2-1.4,0.9-2.5c-0.9,1.2-1.7,2.3-2.6,3.3c-1,1-1.8,2.2-3.2,2.7C21,50,20.8,48.7,19.8,48
					c-0.1,0.5,0,1-0.2,1.3c-0.3,0.5-0.2,0.9-0.1,1.3c0.7,0.3,1.4-0.1,2.2,0.4c-1.2,0.8-2.2,1.4-3.6,2.2c1.8-0.1,3.2,0.3,4.7-0.2
					c0.2,0.4-0.1,0.9,0.2,1.3c0.9-0.1,1.8,0.2,2.5-0.6c-0.3-0.5-1-0.4-1.3-1.1c0.9-0.5,1.9-1,2.7-1.7c0.8-0.7,1.7-1.4,2.1-2.8
					c-1,0.7-1.6,1.4-2.4,1.8c-0.8,0.4-1.4,1.1-2.5,1.3c0.3-0.5,0.3-0.9,0.6-1.1C25.8,49.3,26.4,48.1,27.1,47.1z"/>
				<path d="M48.9,15.1c-1.2,2-2.3,4-3.4,5.8c-0.7,0.2-1.4,0.4-2,0.7c0.4,0.7,1.1,0.6,1.5,1c0,0.7,0.2,1.5-0.1,2.1
					c-0.4,0.7-0.4,1.6-0.2,2.1c0.4,1.1,0.2,2.1,0.5,3c0.1,0.2,0.2,0.4,0.3,0.6c0.1,0,0.1-0.1,0.2-0.1c0-0.7,0-1.5,0-2.2
					c0.1-0.8-0.3-1.6,0.2-2.3c0.4-0.6-0.1-1.3,0.4-1.9c-0.3,1.5,0.4,3,0.6,4.5c-0.1-0.9,0.3-1.6,0.4-2.4c0.1-0.5,0-1,0-1.6
					c0-0.5,0-0.9,0-1.4c0-0.5-0.2-1.1,0.3-1.4c-0.7-0.4,0.1-0.8,0-1.3c-0.2-1.6,0.4-3,1.1-4.4C49,15.7,49.3,15.5,48.9,15.1z"/>
				<path d="M42.5,56c-0.5-0.4-0.9-0.8-1.2-1.6c-0.1,0.6-0.1,1-0.1,1.5c-0.5,0.1-1,0.1-1.4,0.7c0.9,0.1,1.4,0.8,2.2,1.2
					c0.6-0.4,0.8-1,1.4-1.4c0.5-0.3,1-0.8,1.1-1.4c0.5-0.1,0.6,0.4,1,0.3c0.4-0.1,0.8-0.1,1.1,0.3c0.2-0.2,0.3-0.3,0.5-0.5
					c-0.1-0.7,0.1-1.5-0.1-2.3c-0.8,0.5-1.4,1-2.1,1.4c-0.1,0.1-0.3,0.1-0.5-0.1c-0.2-0.2,0.2-0.6-0.2-0.9c-0.5-0.1-0.7,0.3-0.9,0.6
					c0.1,0.4,0.6,0.7,0.3,1.3C43.2,55.3,43.1,56,42.5,56z"/>
				<path d="M44.4,31.4c-0.3-0.3-0.2-0.7-0.1-1c0.5-1,0.2-2,0.3-3c0,0-0.1-0.1-0.2-0.1c-0.1,0.2-0.2,0.4-0.2,0.6
					c-0.4-0.1-0.1-0.5-0.4-0.7c-1.3,2.7-1.3,2.7-1.2,5.8c0.3,0.5,0.6,0.8,0.8,1.1c-0.2-1.5-0.3-1.7,0.1-2.8c0.2,0.6,0.4,1.3,1.1,1.8
					C44.5,32.6,44.9,32,44.4,31.4z"/>
				<path d="M38.6,53.6c-0.5-0.2-0.7-0.8-1.3-1c0.1,0.9,0.9,1.2,1.2,1.7c0.6,0,1.1,0,1.5,0c0.7-1.7,0.3-3-1.3-4.4c0,0.6,0,1.3,0,2.1
					c0.3-0.2,0.4-0.3,0.5-0.5c0.2,0.5,0.6,0.9,0.5,1.4C39.5,53.5,39.1,53.6,38.6,53.6z"/>
				<path d="M29.8,55.7c-1.3-0.3-2.4-0.8-3.5-1.6c0.3,1.1,0.3,2.1,0.8,3C28,56.6,29.1,56.7,29.8,55.7z"/>
				<path d="M50.9,48.7c1-0.1,2.2-0.4,2.7-0.8c-0.3-0.9-0.6-1.6-0.9-2.7C51.9,46.6,51.4,47.6,50.9,48.7z"/>
				<path d="M34.3,56.8c-1.1-0.2-2.3-0.5-3.8-0.8c0.8,0.9,0.8,2,1.6,2.4C33,58.1,33.7,57.5,34.3,56.8z"/>
				<path d="M51.2,52.2c-0.8-0.5-0.6-1-0.7-1.4c0-0.5,0.1-1-0.2-1.4c-0.7,0.9-1.7,1.4-2.1,2.5c-0.2,0-0.3,0-0.5,0
					C48.8,52.4,49.8,52.1,51.2,52.2z"/>
				<path d="M53,44.6c0.9-0.4,1.6-0.8,2.4-1.2c0.1-0.6-0.6-0.7-0.7-1.2c-0.1-0.5-0.6-0.7-1-1.1C54,42.4,52.8,43.3,53,44.6z"/>
				<path d="M35.3,56.8c0.7,0.7,1.3,1.3,1.9,1.9c0.7-0.6,1.1-1.4,1.4-2.3C37.6,57,36.4,56.5,35.3,56.8z"/>
				<path d="M34.9,20.3c1.1,0,2.1,0,3.4,0c-0.6-0.9-1.3-1.4-1.9-2C36,19,35.1,19.3,34.9,20.3z"/>
				<path d="M54.9,37.4c-0.4-0.2-0.5-0.8-1.2-0.7c0.1,0.4,0.3,0.7,0.3,1.1c-0.1,0.4-0.1,0.8,0,1.2c0.1,0.4-0.3,0.7-0.2,1.5
					c0.9-0.9,1.6-1.6,2.4-2.4C55.6,37.8,55.3,37.6,54.9,37.4z"/>
				<path d="M15.6,41.3c0.7,0.8,1.5,1.2,2.3,1.6c-0.4-1.1,0-2.4-0.7-3.4C16.3,39.9,16.3,40.8,15.6,41.3z"/>
				<path d="M16.8,46.1c0.8,0.7,1.6,1,2.7,0.9c-0.5-1.1-1.1-2-1.3-3.1C17.5,44.5,17.4,45.4,16.8,46.1z"/>
				<path d="M53.8,35.3c0.7-0.7,1.3-1.3,1.3-2.3c-0.7-0.3-1.2-0.8-2.1-0.9C53.1,33.3,53.4,34.3,53.8,35.3z"/>
				<path d="M31.7,18.6c-0.7,0.7-1.4,1.4-1.1,2.4c1-0.4,2-0.6,3-0.7C33.1,19.4,32.2,19.3,31.7,18.6z"/>
				<path d="M17.5,34.9c-0.6-0.1-0.8,0.3-1,0.6c-0.2,0.4-0.9,0.3-1,0.9c0.7,0.5,1.1,1.3,1.7,1.9C16.9,37.1,18,36,17.5,34.9z"/>
				<path d="M39.4,20.6c1.1-0.2,2,0.7,3.3,0.8c-0.4-0.8-0.7-1.5-1-2.1C40.7,19.3,40.2,20.1,39.4,20.6z"/>
			</g>
		</g>
		<path class="st3" d="M55.6,28.6c1.5,3,2.4,6.4,2.4,10c0,12.3-10,22.4-22.4,22.4c-12.3,0-22.4-10-22.4-22.4c0-2.6,0.5-5.1,1.3-7.4
			c-0.6-0.2-1.3-0.4-1.9-0.7c0,0-0.1,0-0.1-0.1c-0.3-0.1-0.5-0.2-0.8-0.4c-1-0.6-2.3-0.9-3.1-2c0.9-0.4,1.6,0.2,2.4,0.4
			c0.7,0.2,1.3,0.4,2,0.6c0,0,0.1,0,0.1,0c0.7,0.2,1.3,0.4,2,0.5c0.1-0.3,0.3-0.6,0.4-1c-0.9,0-1.7,0-2.6,0c-0.1-0.7-0.8-0.9-1.3-1
			c-1.9-0.4-3.6-1.5-5.2-2.5C6.3,25,6,24.9,5.8,24.7c-0.1,0-0.1-0.1-0.2-0.1c-0.2-0.2-0.4-0.3-0.6-0.5c0,0,0,0,0,0
			C3,28.5,1.8,33.4,1.8,38.6c0,18.6,15.2,33.8,33.8,33.8c18.6,0,33.8-15.2,33.8-33.8c0-8.5-3.2-16.4-8.5-22.3c0,0,0,0,0,0
			c-0.6,1.6-1.2,3.2-1.7,4.8c-0.8,2.6-2.1,5.7-3.5,7.4C55.6,28.5,55.6,28.5,55.6,28.6z M5.1,46.2c-0.1-0.3-0.3-0.6-0.3-1
			c-0.1-0.4-0.1-0.7-0.1-1.1c0-0.3,0.1-0.7,0.2-1c0.1-0.3,0.3-0.5,0.5-0.8c0.2-0.2,0.6-0.4,1-0.5l0.4,1.6c-0.4,0.1-0.6,0.3-0.7,0.5
			C6,44.3,6,44.6,6,45c0,0.1,0.1,0.2,0.1,0.4c0.1,0.1,0.1,0.2,0.2,0.3c0.1,0.1,0.2,0.1,0.3,0.2c0.1,0,0.2,0,0.3,0
			c0.1,0,0.2-0.1,0.3-0.2c0.1-0.1,0.1-0.3,0.1-0.5c0-0.2,0-0.4,0-0.6c0-0.2,0-0.5,0-0.7c0-0.2,0-0.5,0.1-0.7c0-0.2,0.1-0.5,0.2-0.7
			c0.1-0.2,0.2-0.4,0.4-0.5c0.2-0.2,0.4-0.3,0.7-0.3c0.3-0.1,0.6-0.1,0.9,0s0.5,0.2,0.7,0.5c0.2,0.2,0.4,0.5,0.5,0.7
			c0.1,0.3,0.2,0.6,0.3,0.9c0.1,0.3,0.1,0.6,0.1,0.9c0,0.3-0.1,0.6-0.2,0.9c-0.1,0.3-0.3,0.5-0.5,0.7c-0.2,0.2-0.5,0.4-0.9,0.4
			L9.5,45c0.1,0,0.3-0.1,0.3-0.2c0.1-0.1,0.1-0.2,0.2-0.3c0-0.1,0.1-0.2,0-0.4c0-0.1,0-0.3,0-0.4c0-0.1-0.1-0.2-0.1-0.3
			c0-0.1-0.1-0.2-0.1-0.2c-0.1-0.1-0.1-0.1-0.2-0.1c-0.1,0-0.2,0-0.3,0c-0.1,0-0.2,0.1-0.3,0.2c-0.1,0.1-0.1,0.3-0.1,0.5
			c0,0.2,0,0.4,0,0.6c0,0.2,0,0.5,0,0.7c0,0.2,0,0.5-0.1,0.7c0,0.2-0.1,0.5-0.2,0.7c-0.1,0.2-0.2,0.4-0.4,0.5
			c-0.2,0.2-0.4,0.3-0.7,0.3c-0.4,0.1-0.7,0.1-1.1,0c-0.3-0.1-0.6-0.2-0.8-0.5C5.4,46.7,5.2,46.5,5.1,46.2z M6.3,49.7l5.7-2.9
			l2.3,4.6L13.1,52l-1.6-3.1l-1,0.5l1.4,2.8l-1.2,0.6L9.4,50l-1.1,0.6l1.6,3.2l-1.3,0.6L6.3,49.7z M13.3,60.7l3.6-3.3l0,0l-4.5,2.3
			l-0.9-0.9l2.7-4.3l0,0l-3.6,3.3l-1.1-1.2l4.8-4.3l1.7,1.8l-2.4,3.7l0,0l3.9-2.1l1.7,1.8l-4.8,4.3L13.3,60.7z M22,63.7l-2.7-1.7
			l-0.7,1l3,1.9l-0.8,1.2l-4.4-2.8l3.4-5.4l4.3,2.7l-0.7,1.1L20.6,60L20,61l2.7,1.7L22,63.7z M28.2,68.9l-1.6-0.5l-0.9-4.5l0,0
			l-1.3,3.8l-1.5-0.5l2-6.1l1.6,0.5l0.9,4.5l0,0l1.2-3.8l1.5,0.5L28.2,68.9z M39.6,69.5l-0.1-0.7c-0.1,0.2-0.2,0.3-0.4,0.4
			c-0.1,0.1-0.3,0.2-0.4,0.3c-0.2,0.1-0.3,0.1-0.5,0.2c-0.2,0-0.3,0.1-0.5,0.1c-0.5,0-0.9,0-1.3-0.2c-0.4-0.1-0.8-0.4-1.1-0.6
			c-0.3-0.3-0.5-0.6-0.7-1c-0.2-0.4-0.3-0.8-0.3-1.3c0-0.5,0-0.9,0.1-1.3c0.1-0.4,0.3-0.8,0.6-1.1c0.3-0.3,0.6-0.6,1-0.8
			c0.4-0.2,0.8-0.3,1.3-0.3c0.3,0,0.7,0,1,0.1c0.3,0.1,0.6,0.2,0.9,0.4c0.3,0.2,0.5,0.4,0.7,0.7c0.2,0.3,0.3,0.6,0.4,1l-1.7,0.1
			c0-0.3-0.2-0.5-0.4-0.6c-0.2-0.1-0.5-0.2-0.9-0.2c-0.3,0-0.5,0.1-0.7,0.2c-0.2,0.1-0.3,0.3-0.4,0.5c-0.1,0.2-0.2,0.4-0.2,0.6
			c0,0.2-0.1,0.5,0,0.7c0,0.2,0.1,0.5,0.1,0.7c0.1,0.2,0.2,0.4,0.3,0.6c0.1,0.2,0.3,0.3,0.5,0.4c0.2,0.1,0.4,0.1,0.7,0.1
			c0.4,0,0.7-0.1,1-0.3c0.2-0.2,0.4-0.4,0.4-0.7l-1.2,0.1L37.7,66l2.7-0.2l0.2,3.5L39.6,69.5z M47.1,67.5l-0.7-1l-2.1,0.7l0,1.2
			L42.6,69l0.2-6.9l1.6-0.5l4.3,5.3L47.1,67.5z M54,63.8c-0.1,0-0.1-0.1-0.2-0.1c-0.1-0.1-0.1-0.1-0.2-0.2c-0.1-0.1-0.1-0.2-0.2-0.2
			s-0.1-0.1-0.1-0.2c-0.1-0.1-0.2-0.3-0.3-0.4c-0.1-0.1-0.2-0.2-0.3-0.3c-0.1-0.1-0.3-0.1-0.4-0.1c-0.1,0-0.3,0.1-0.5,0.2l-1.1,0.7
			l1.3,2L50.6,66l-3.5-5.4l2.8-1.8c0.2-0.2,0.5-0.3,0.8-0.4c0.3-0.1,0.5-0.1,0.8-0.1c0.3,0,0.5,0.1,0.7,0.2c0.2,0.1,0.4,0.3,0.6,0.6
			c0.2,0.3,0.3,0.6,0.3,0.9c0,0.3-0.1,0.7-0.3,1l0,0c0.2-0.1,0.3-0.1,0.5,0c0.2,0,0.3,0.1,0.4,0.2c0.1,0.1,0.3,0.2,0.4,0.3
			c0.1,0.1,0.2,0.2,0.3,0.4c0,0.1,0.1,0.1,0.2,0.2c0.1,0.1,0.2,0.2,0.3,0.3c0.1,0.1,0.2,0.2,0.3,0.3c0.1,0.1,0.2,0.1,0.3,0.2
			L54,63.8z M58.8,59.3c-0.7,0.7-1.3,1.1-2,1.1c-0.6,0-1.3-0.3-2-0.9l-2.8-2.6l1.1-1.2l2.8,2.6c0.3,0.3,0.6,0.4,0.9,0.5
			c0.3,0,0.5-0.1,0.8-0.4c0.3-0.3,0.4-0.6,0.4-0.9c0-0.3-0.2-0.5-0.5-0.8L54.8,54l1.1-1.2l2.8,2.6c0.7,0.6,1,1.3,1.1,1.9
			C59.8,57.9,59.5,58.5,58.8,59.3z M59.8,43.2l6.8-0.7l-0.4,1.7l-1.2,0.1l-0.6,2.2l1,0.7l-0.4,1.7l-5.6-4L59.8,43.2z M59.5,48
			c0.4-0.1,0.8-0.1,1.2-0.1c0.4,0.1,0.8,0.2,1.3,0.4c0.5,0.2,0.8,0.5,1.1,0.9c0.3,0.3,0.5,0.7,0.6,1c0.1,0.4,0.1,0.8,0.1,1.2
			c-0.1,0.4-0.2,0.8-0.4,1.3L62,55.2l-5.7-3l1.3-2.4c0.2-0.4,0.5-0.8,0.8-1.1C58.8,48.3,59.1,48.2,59.5,48z"/>
		<path d="M5.7,18.7c-0.8-0.2-1-1.1-1.8-1.4c0,0.1-0.1,0.2-0.1,0.2c1,1.7,2.1,3.3,3.8,4.5c1.9,1.3,3.8,2.3,5.9,2.8
			c2.2,0.5,4.3,1.3,6.5,2c-1.3,0.1-2.6,0.1-4,0.1c-0.3,0-0.7,0.1-1,0c-1.5-0.6-3.1-0.8-4.6-1.4c-1.3-0.5-2.7-0.7-3.8-1.6
			c-0.7-0.6-1.7-0.8-2.3-1.5c-0.1-0.1-0.3,0-0.4,0.2c0,0,0,0.1,0,0.1c0,0,0,0,0,0C4,23,4.2,23.2,4.4,23.5c0.7,0.6,1.4,1.2,2.1,1.7
			c1.6,1,3.3,2,5.2,2.5c0.5,0.1,1.1,0.3,1.3,1c1,0,2,0,2.9,0c0.5,0,1.2-0.2,1.5,0.1c0.7,0.5,1.5,0.4,2.1,0.2
			c1.2-0.4,2.5-0.2,3.7-0.3c1.7-0.1,3.2,0.5,4.7,1.2c0.3,0.1,0.4,0.3,0.7,0.1c-1.4-2.4-3.6-3.8-6-5c-0.5-0.2-0.8,0.1-1.2,0.3
			c-1.9-1-3.8-1.7-5.7-2.4c-0.7-0.2-1.3-0.4-2-0.7c-1.9-0.9-3.7-2-5.1-3.6c-0.7-0.7-1.4-1.4-2.1-2.1c-1.4-1.4-2.6-3-3.5-4.8
			c-0.2-0.3-0.6-0.6-0.7-0.9c-0.1-0.4-0.4-0.5-0.8-0.8c1.1,4.1,3.2,7.2,6.2,10.2C6.6,19.9,6.3,18.9,5.7,18.7z"/>
		<path d="M11.7,30c1,0.6,2.2,0.8,3.3,1.3c1.1,0.5,2.4,0.4,3.9,0.5c-1.1,0.4-1.9,0.7-2.7,1c1,0.1,1.8,0.7,2.7,0.6
			c0.9-0.1,1.9-0.1,2.8,0.1c-0.6,0.2-1.2,0.3-1.8,0.8h5.4c0.1,0.1,0.1,0.1,0.2,0.2c0.1,0.1,0.3,0.1,0.4,0.2c1.2,0.5,1.9,1.3,2.1,2.7
			c0.1,0.7,0.1,1.4,0.5,2.1c-0.9-0.7-1.6-1.6-2.3-2.7v2c-0.9-0.3-0.9-1.3-1.9-1.9c1.3,2.9,3.3,4.7,6,6c-1.1,0.6-1.6,1.4-1.1,2.7
			c0.4-0.5,0.8-0.8,1.1-1.2c0.2,0.4,0.2,0.7-0.1,1c-0.3,0.3-0.1,0.7-0.1,1c-0.1,0.4-0.1,0.8-0.2,1.1c-0.2,1-0.8,1.8-1.5,2.5
			c-0.5,0.4-0.9,0.9-1.5,1.5c1.5,0,2.4-1.2,3.7-1c1.3-0.9,2.4,0,3.6,0.2c0.1-0.4-0.1-0.8,0.1-1.2c0.6,0.3,1.3,0.6,2.1,1.1
			c-0.5-1.3-1.5-1.8-2.2-2.7v-1c0.3-0.5,0.7-0.6,1.1-0.3c0.4,0.4,0.9,0.7,1.3,1.1c-0.3,0.3-0.7-0.1-1,0.3c0.4,0.5,1,0.7,1.6,0.9
			c0.4-1.4-0.9-2.5-0.5-3.8c0.4-0.1,0.5-0.8,1.2-0.7c0.2,0.3,0.5,0.6,0.8,0.9c-0.1,0.4,0.2,0.8-0.2,1.1c-0.3-0.2-0.5-0.5-1-0.8
			c0.4,1.1,1.1,1.9,0.8,2.9c1.2-0.7,1.2-1.8,1.5-2.8c0.3-0.1,0.6-0.2,0.7-0.3c0.4,0.3,0.7,0.5,1.1,0.8c-0.5,0.5-0.4,1-0.6,1.5
			c-0.7,0.2-0.4-0.6-0.9-0.6v2c0.7,0.3,0.8-0.6,1.3-0.6c0.1,0.7-0.4,1.4-0.5,2.1c-0.1-0.1-0.3-0.2-0.5-0.4c-0.2,1,0.5,1.7,0.4,2.5
			c0.8-1.3,0.6-3,1.7-4.1h0.9c0,0.6,0.2,1.3-0.6,1.7c-0.2,0-0.2-0.4-0.5-0.1c0.1,0.5-0.2,1.1,0.2,1.6c1.5-0.6,1.4-2.2,2-3.2
			c0.3,0.1,0.6-0.1,0.8,0.1v1.5c-0.1,0-0.1-0.1-0.2-0.1c-0.1,0.2-0.2,0.4-0.3,0.7c-0.1-0.4-0.2-0.6-0.3-0.8c0.1,0.8-0.9,1.1-0.9,2
			c1.7-0.8,1.7-0.8,2.6-2c0.3,0,0.6-0.1,0.8,0.1c0,1.1-0.2,1.6-0.7,1.6c-0.1-0.1-0.3-0.2-0.5-0.3c-0.8,0.8-0.8,0.8-0.7,1h1.5
			c0.3-0.2,0.5-0.6,0.8-0.7c0.2-0.4,0.4-0.8,0.6-1.2c-0.2-0.9-0.9-1.1-1.6-1.3c-0.1-0.7-0.6-0.9-0.9-1.2c-0.7-0.2-1.2,0.1-1.6,0.3
			c-0.5-0.3-0.7-1-1.5-0.7c-0.3,0.1-0.5,0.6-0.9,0.7c0-0.2,0-0.4,0.1-0.7c0.6-0.9,0.2-1.7-0.3-2.5c-0.5,0.2-0.6-0.6-1.1-0.3
			c-0.1,0-0.2,0.4-0.4,0.2c-0.3-1.1,0.6-1.2,1.1-1.5c1.6,0.4,2.5,1.4,3.2,2.7c0.5-0.4-0.1-1.1,0.4-1.4c0.1,0,0.3,0,0.3,0
			c0.1,0.8,1.1,1.1,0.9,2.1c-0.1,0.3,0.3,0.7,0.6,0.7c1-0.5,1.2-1.5,1.7-2.2c-0.3-0.7-0.7-1.3-1-2c0.8-1,1.1-2,0.2-2.9
			c-0.7-0.4-1.2-1.1-1.9-1.7c0.6-0.5,0.2-1.2,0.5-2.1c-0.1-0.6,1.2-0.8,1.3-1.8c1.3-0.9,2.6-2,4-2.8c1.6-1,3-2.3,4.2-3.7
			c1.4-1.7,2.7-4.8,3.5-7.4c0.7-2,1.3-3.9,2.1-5.8c0,0,1-2.2,1.3-2.9c1.2-2.4,2.3-4.8,4.1-6.8c0,0,0-0.2-0.1-0.4
			c-0.3,0.2-0.7,0.3-0.9,0.5c-1.1,0.8-1.7,1.9-2.5,2.9c-1.7,2-2.6,4.5-3.5,7c-0.3-0.3-0.3-0.7-0.2-0.9c0.2-0.3,0.3-0.6,0.3-0.9
			c0.5-1.8,1-3.6,2.2-5.1c0.2-0.3,0.3-0.5,0-0.8c-1.3,1.5-2.5,3-3.4,4.8c-0.9,2-1.4,4-2,6.1c-0.6,2.3-1.1,4.6-1.8,6.9
			c-0.7,2.3-1.6,3.3-3.7,4.8c-2,1.5-4.5,2.5-6.1,4.6c-0.1,0.1-0.2,0.2-0.2,0.2c0.1,0.6-0.3,1-0.6,1.6c-0.5-0.8-1.2-1.3-1.7-2
			c-0.5-0.7-0.6-1.7-1.4-2.2c-0.4,0.4,0.1,1-0.4,1.4c-0.5-0.6-1.1-1.1-1.9-1.4c-0.6,0.3-1.1,0.5-1.8,0.1c-0.9-0.4-1.9-0.8-3.3-0.2
			c1.6,0.2,2.7,1.3,4.1,1.1c0.4,0.6,1.5,0,1.6,1.1H37c1.9,0.6,3.9,0.9,5.6,2.1c0.2-0.2,0.3-0.3,0.5-0.4c1,1.7,2.1,3.4,3.6,4.6
			c0.1,0.7-0.1,1.2-0.8,1.3c-0.4-1-1.1-1.6-2.2-1.8c-0.2,0-0.3,0-0.4,0.3c0.2,0.2,0.5,0.4,0.7,0.5c0,0.7-0.2,1.3,0.5,1.5
			c0.6-0.5,1.2-0.3,1.8-0.3c0.7,0.5,0.5,1.5,1,2.1c0.5,0.6,0.2,1-0.4,1.4c-0.6-1.1-1.7-2.2-2.4-2.4c-0.4-0.1-0.7,0.1-1,0.3
			c-0.6-0.4-0.9-0.9-1.1-1.5c0.1-0.2,0.6,0.1,0.6-0.5c-0.2-0.7-1.2-0.7-1.6-1.4c-0.3,0.8,0.7,1.2,0.1,1.7c-1.6-0.4-2.5-1.7-3.6-2.7
			c-0.1,0.3-0.2,0.5-0.3,0.7c-0.7-0.5-1-1.1-1.3-1.9c-0.4-1-0.9-1.4-2.1-2.2c0,0.5,0.4,0.9,0.6,1.3c0.1,0.1,0.1,0.2-0.1,0.3h-0.7
			c-1.4-1.3-2.9-2.6-3.7-4.4v3.4c-0.3-0.4-0.6-0.7-0.7-1.2c-0.3-1.2-0.7-2.3-1.7-3.1c-0.1-0.1-0.2-0.1-0.4-0.2h-1
			c0.3-0.5,0.7-0.6,1-0.9c-0.9,0.1-1.8-0.4-2.6,0.3c-1-0.2-1.9,0.8-2.9,0.1c1.3-0.3,2.5-0.9,3.5-1.7c-0.4-0.4-1-0.3-1.2-0.2
			c-0.6,0.4-1.2,0.3-1.8,0.3c-1.7-0.1-3.5,0.1-5.2-0.3c-2.2-0.4-4.3-1-6.4-1.6c-0.8-0.2-1.5-0.8-2.4-0.4C9.4,29.2,10.7,29.4,11.7,30
			z"/>
		<path d="M31.8,31.9c-0.3-1.4-1-2.7-1.4-4.1c-0.6-2.2-0.6-2.3-2.4-3.4c-0.7-0.4-1.2-0.9-1.7-1.4c0.4-0.6,1-0.6,1.4-1.1
			c0.3-0.4,1.2,0,1.3-0.8c-0.7-0.3-1.5-0.6-2.2-0.8c-0.3,0.9-0.6,1.7-1,2.6c-0.4-0.8-1.2-0.9-1.7-1.4c-0.6-0.7-1.4-1.3-2.2-1.8
			c-1.6-1.1-3.2-2.2-4.6-3.6c-0.7-0.7-1.3-1.3-2-2c-0.7-0.7-1.4-1.5-2-2.3c0,0,0,0,0.1,0c-0.1-0.2-0.2-0.4-0.3-0.6
			c0,0-0.1,0.1-0.1,0.1c-0.7-1-1.3-2.2-1.8-3.4c-1.1-2.5-2.3-5-3.1-7.9c-0.3,2,0.1,3.5,0.6,5c1.2,3.8,2.9,7.3,5.5,10.3
			c1.8,2.1,3.9,3.8,6.1,5.3c2.3,1.7,4.8,3.2,7.2,4.8c0.8,0.5,1.2,1.1,1.6,1.8c0.7,1.2,1,2.6,1.7,3.8c0.9,1.5,0.9,1.6,1.7,2
			C32.6,32.4,31.9,32.3,31.8,31.9z"/>
		<path d="M54.3,8.5c0,0-0.6,0.7-0.7,0.7c-1.9,1.9-2.6,3.4-3.5,6.5c-0.7,0.4,0,1.3-0.6,1.6c-0.2,1.7-1,3.4-0.8,5.2c0.1,1,0,2,0,2.9
			c0,0.2,0,0.3,0.2,0.4c0.1,0,0.2,0,0.5,0c-0.3-1.7,0.2-3.2,0.4-4.7c0.3-1.5,0.6-3,1.2-4.5c0.5-1.4,1-2.8,1.5-4.2
			c0.5-1.4,1.5-2.6,2.2-4.3C54.6,8.2,54.3,8.5,54.3,8.5z"/>
	</g>
	<g>
		<path d="M35.6,3.8c6.8,0,13.1,2,18.5,5.3c0.1-0.2,0.2-0.5,0.4-0.6C49,5,42.5,3,35.6,3c-8.8,0-16.9,3.2-23.1,8.6
			c0.2,0.2,0.4,0.4,0.5,0.6C19,7,26.9,3.8,35.6,3.8z"/>
		<path d="M61.3,14.1c-0.1,0.2-0.3,0.4-0.5,0.6c5.9,6.2,9.5,14.6,9.5,23.9c0,19.2-15.6,34.8-34.8,34.8S0.8,57.7,0.8,38.6
			c0-5.5,1.3-10.7,3.6-15.4c-0.2-0.1-0.4-0.3-0.6-0.5C1.4,27.4,0,32.8,0,38.6C0,58.1,16,74.1,35.6,74.1s35.5-15.9,35.5-35.5
			C71.1,29.1,67.4,20.5,61.3,14.1z"/>
	</g>
</g>
</svg>
